<svg width="145" height="30" viewBox="0 0 145 30" fill="none" xmlns="http://www.w3.org/2000/svg">
<path d="M14.258 25.865C14.2724 26.4021 14.1797 26.9367 13.9851 27.4376C13.7906 27.9384 13.4982 28.3955 13.125 28.782C12.752 29.1668 12.3057 29.4728 11.8124 29.682C11.3191 29.8913 10.7888 29.9994 10.253 30C9.71699 30.0002 9.18648 29.8924 8.69305 29.6832C8.19963 29.4739 7.75339 29.1674 7.38095 28.782C7.00705 28.396 6.71419 27.939 6.51961 27.438C6.32502 26.9371 6.23266 26.4022 6.24796 25.865C6.25696 25.167 6.44796 24.483 6.80496 23.884C7.16096 23.284 7.66796 22.79 8.27496 22.451C8.25096 22.56 8.36496 22.396 8.27496 22.451L10.135 20.799C11.6094 19.2298 12.4329 17.1592 12.439 15.006C12.439 12.08 10.728 9.105 8.26896 7.549C8.36296 7.604 8.23296 7.455 8.26896 7.549C7.66165 7.20902 7.1549 6.71469 6.79996 6.116C6.44379 5.5163 6.25169 4.83344 6.24296 4.136C6.22831 3.59872 6.32097 3.06391 6.51552 2.56287C6.71006 2.06183 7.00258 1.60462 7.37596 1.218C7.74876 0.833339 8.19493 0.527354 8.68806 0.318146C9.1812 0.108938 9.71128 0.000756058 10.247 5.71818e-07C10.7829 -0.000286365 11.3135 0.107418 11.8069 0.316684C12.3004 0.52595 12.7466 0.832488 13.119 1.218C13.493 1.60395 13.786 2.06089 13.9805 2.56188C14.1751 3.06288 14.2674 3.59777 14.252 4.135C14.2624 6.30708 15.1019 8.3932 16.599 9.967L17.416 10.767C17.742 11.052 18.084 11.318 18.44 11.565C19.061 11.895 19.582 12.391 19.944 12.996C20.215 13.4489 20.3912 13.9521 20.4622 14.4751C20.5331 14.9982 20.4972 15.5301 20.3566 16.0389C20.216 16.5476 19.9736 17.0225 19.6442 17.4349C19.3147 17.8473 18.9051 18.1885 18.44 18.438C18.473 18.371 18.377 18.474 18.44 18.438C17.1838 19.2321 16.1447 20.3258 15.416 21.621C14.6855 22.9184 14.2876 24.3764 14.258 25.865V25.865ZM18.741 4.123C18.741 4.919 18.976 5.698 19.417 6.36C19.8564 7.02107 20.4821 7.53685 21.215 7.842C21.9471 8.14685 22.7534 8.22661 23.531 8.07112C24.3087 7.91563 25.0224 7.53193 25.581 6.969C26.1413 6.40452 26.5226 5.68728 26.6771 4.9071C26.8317 4.12692 26.7527 3.31848 26.45 2.583C26.1472 1.84836 25.6336 1.2199 24.974 0.777001C24.2038 0.260281 23.2779 0.0276751 22.355 0.119089C21.4321 0.210504 20.5698 0.62024 19.916 1.278C19.164 2.034 18.7416 3.05673 18.741 4.123V4.123ZM22.748 21.84C21.956 21.84 21.181 22.076 20.522 22.518C19.8623 22.9609 19.3487 23.5894 19.046 24.324C18.743 25.0596 18.6639 25.8683 18.8184 26.6486C18.973 27.429 19.3545 28.1464 19.915 28.711C20.4735 29.2739 21.1872 29.6576 21.9649 29.8131C22.7425 29.9686 23.5488 29.8888 24.281 29.584C25.0144 29.2785 25.6405 28.762 26.08 28.1C26.5947 27.3249 26.8261 26.3959 26.735 25.47C26.6439 24.544 26.2359 23.6779 25.58 23.018C25.2088 22.6446 24.7676 22.3482 24.2816 22.1457C23.7956 21.9432 23.2744 21.8386 22.748 21.838V21.84ZM33 14.994C33 14.198 32.765 13.42 32.325 12.758C31.8857 12.0966 31.2599 11.5804 30.527 11.275C29.7947 10.9699 28.9882 10.8901 28.2103 11.0456C27.4325 11.2011 26.7186 11.5849 26.16 12.148C25.5995 12.7126 25.218 13.43 25.0634 14.2104C24.9089 14.9907 24.988 15.7994 25.291 16.535C25.5937 17.2696 26.1073 17.8981 26.767 18.341C27.4252 18.783 28.2001 19.019 28.993 19.019C29.5194 19.0182 30.0405 18.9136 30.5265 18.7111C31.0124 18.5086 31.4537 18.2123 31.825 17.839C32.5769 17.0826 32.9993 16.0596 33 14.993V14.994Z" fill="#6366F1"/>
<path d="M4.00699 10.969C3.21399 10.969 2.43999 11.205 1.78099 11.647C1.12121 12.0902 0.607587 12.719 0.304995 13.454C0.00225815 14.1895 -0.0767693 14.9979 0.077808 15.7781C0.232385 16.5583 0.613697 17.2755 1.17399 17.84C1.73339 18.4017 2.44702 18.7845 3.22434 18.9399C4.00166 19.0953 4.80763 19.0164 5.53999 18.713C6.2729 18.4075 6.89866 17.8914 7.338 17.23C7.85242 16.4552 8.08361 15.5265 7.99251 14.601C7.90141 13.6754 7.49361 12.8097 6.83799 12.15C6.4669 11.7767 6.02585 11.4803 5.54007 11.2776C5.0543 11.075 4.53334 10.9701 4.00699 10.969V10.969Z" fill="#6366F1"/>
<path d="M56.16 21H53.6V16.28C53.6 15.736 53.4987 15.336 53.296 15.08C53.0933 14.824 52.832 14.696 52.512 14.696C52.1707 14.696 51.8347 14.8347 51.504 15.112C51.1733 15.3893 50.9387 15.7467 50.8 16.184V21H48.24V16.28C48.24 15.7253 48.1387 15.3253 47.936 15.08C47.7333 14.824 47.472 14.696 47.152 14.696C46.8107 14.696 46.4747 14.8347 46.144 15.112C45.824 15.3893 45.5893 15.7467 45.44 16.184V21H42.88V12.6H45.184V14.008C45.4933 13.5067 45.9147 13.1227 46.448 12.856C46.9813 12.5787 47.5947 12.44 48.288 12.44C48.9813 12.44 49.5147 12.6053 49.888 12.936C50.2613 13.256 50.5013 13.6347 50.608 14.072C50.928 13.56 51.3493 13.16 51.872 12.872C52.4053 12.584 53.0027 12.44 53.664 12.44C54.1973 12.44 54.624 12.5413 54.944 12.744C55.2747 12.936 55.5253 13.192 55.696 13.512C55.8773 13.832 56 14.1787 56.064 14.552C56.128 14.9147 56.16 15.272 56.16 15.624V21ZM57.8331 11.64V9.32H60.3931V11.64H57.8331ZM57.8331 21V12.6H60.3931V21H57.8331ZM66.1616 21.16C65.223 21.16 64.4123 20.9573 63.7296 20.552C63.0576 20.1467 62.5403 19.6133 62.1776 18.952C61.8256 18.2907 61.6496 17.5707 61.6496 16.792C61.6496 16.024 61.8256 15.3093 62.1776 14.648C62.5403 13.9867 63.0576 13.4533 63.7296 13.048C64.4016 12.6427 65.2123 12.44 66.1616 12.44C67.1216 12.44 67.9323 12.648 68.5936 13.064C69.2656 13.4693 69.767 14.0027 70.0976 14.664L67.6016 15.416C67.271 14.8827 66.7856 14.616 66.1456 14.616C65.623 14.616 65.1803 14.8133 64.8176 15.208C64.455 15.6027 64.2736 16.1307 64.2736 16.792C64.2736 17.4533 64.455 17.9867 64.8176 18.392C65.1803 18.7973 65.623 19 66.1456 19C66.4656 19 66.759 18.9253 67.0256 18.776C67.2923 18.616 67.4896 18.4133 67.6176 18.168L70.1136 18.936C69.8043 19.5867 69.3083 20.12 68.6256 20.536C67.9536 20.952 67.1323 21.16 66.1616 21.16ZM75.1925 21.16C74.2325 21.16 73.4165 20.9573 72.7445 20.552C72.0832 20.1467 71.5765 19.6133 71.2245 18.952C70.8725 18.2907 70.6965 17.576 70.6965 16.808C70.6965 16.0293 70.8725 15.3093 71.2245 14.648C71.5765 13.9867 72.0885 13.4533 72.7605 13.048C73.4325 12.6427 74.2432 12.44 75.1925 12.44C76.1418 12.44 76.9525 12.6427 77.6245 13.048C78.2965 13.4533 78.8085 13.9867 79.1605 14.648C79.5125 15.3093 79.6885 16.0293 79.6885 16.808C79.6885 17.576 79.5125 18.2907 79.1605 18.952C78.8085 19.6133 78.2965 20.1467 77.6245 20.552C76.9525 20.9573 76.1418 21.16 75.1925 21.16ZM73.3205 16.808C73.3205 17.4587 73.4965 17.9867 73.8485 18.392C74.2112 18.7973 74.6592 19 75.1925 19C75.7152 19 76.1525 18.7973 76.5045 18.392C76.8672 17.9867 77.0485 17.4587 77.0485 16.808C77.0485 16.1573 76.8672 15.6293 76.5045 15.224C76.1525 14.8187 75.7152 14.616 75.1925 14.616C74.6592 14.616 74.2112 14.8187 73.8485 15.224C73.4965 15.6293 73.3205 16.1573 73.3205 16.808ZM94.2381 21H91.6781V16.28C91.6781 15.736 91.5768 15.336 91.3741 15.08C91.1715 14.824 90.9101 14.696 90.5901 14.696C90.2488 14.696 89.9128 14.8347 89.5821 15.112C89.2515 15.3893 89.0168 15.7467 88.8781 16.184V21H86.3181V16.28C86.3181 15.7253 86.2168 15.3253 86.0141 15.08C85.8115 14.824 85.5501 14.696 85.2301 14.696C84.8888 14.696 84.5528 14.8347 84.2221 15.112C83.9021 15.3893 83.6675 15.7467 83.5181 16.184V21H80.9581V12.6H83.2621V14.008C83.5715 13.5067 83.9928 13.1227 84.5261 12.856C85.0595 12.5787 85.6728 12.44 86.3661 12.44C87.0595 12.44 87.5928 12.6053 87.9661 12.936C88.3395 13.256 88.5795 13.6347 88.6861 14.072C89.0061 13.56 89.4275 13.16 89.9501 12.872C90.4835 12.584 91.0808 12.44 91.7421 12.44C92.2755 12.44 92.7021 12.5413 93.0221 12.744C93.3528 12.936 93.6035 13.192 93.7741 13.512C93.9555 13.832 94.0781 14.1787 94.1421 14.552C94.2061 14.9147 94.2381 15.272 94.2381 15.624V21ZM109.191 21H106.631V16.28C106.631 15.736 106.53 15.336 106.327 15.08C106.125 14.824 105.863 14.696 105.543 14.696C105.202 14.696 104.866 14.8347 104.535 15.112C104.205 15.3893 103.97 15.7467 103.831 16.184V21H101.271V16.28C101.271 15.7253 101.17 15.3253 100.967 15.08C100.765 14.824 100.503 14.696 100.183 14.696C99.8419 14.696 99.5059 14.8347 99.1753 15.112C98.8553 15.3893 98.6206 15.7467 98.4713 16.184V21H95.9113V12.6H98.2153V14.008C98.5246 13.5067 98.9459 13.1227 99.4793 12.856C100.013 12.5787 100.626 12.44 101.319 12.44C102.013 12.44 102.546 12.6053 102.919 12.936C103.293 13.256 103.533 13.6347 103.639 14.072C103.959 13.56 104.381 13.16 104.903 12.872C105.437 12.584 106.034 12.44 106.695 12.44C107.229 12.44 107.655 12.5413 107.975 12.744C108.306 12.936 108.557 13.192 108.727 13.512C108.909 13.832 109.031 14.1787 109.095 14.552C109.159 14.9147 109.191 15.272 109.191 15.624V21ZM114.88 21.16C113.931 21.16 113.12 20.9627 112.448 20.568C111.776 20.1733 111.259 19.6507 110.896 19C110.544 18.3493 110.368 17.6453 110.368 16.888C110.368 16.0773 110.544 15.336 110.896 14.664C111.248 13.992 111.76 13.4533 112.432 13.048C113.104 12.6427 113.92 12.44 114.88 12.44C115.83 12.44 116.64 12.6427 117.312 13.048C117.984 13.4533 118.491 13.9867 118.832 14.648C119.184 15.3093 119.36 16.0187 119.36 16.776C119.36 17.0853 119.339 17.3573 119.296 17.592H113.088C113.131 18.1573 113.334 18.5893 113.696 18.888C114.07 19.176 114.491 19.32 114.96 19.32C115.334 19.32 115.691 19.2293 116.032 19.048C116.374 18.8667 116.608 18.6213 116.736 18.312L118.912 18.92C118.582 19.5813 118.064 20.12 117.36 20.536C116.667 20.952 115.84 21.16 114.88 21.16ZM113.024 16.024H116.672C116.619 15.4907 116.422 15.0693 116.08 14.76C115.75 14.44 115.339 14.28 114.848 14.28C114.358 14.28 113.942 14.44 113.6 14.76C113.27 15.08 113.078 15.5013 113.024 16.024ZM125.849 14.792C125.23 14.8027 124.67 14.904 124.169 15.096C123.667 15.288 123.305 15.576 123.081 15.96V21H120.521V12.6H122.873V14.296C123.161 13.7307 123.534 13.288 123.993 12.968C124.451 12.648 124.931 12.4827 125.433 12.472C125.646 12.472 125.785 12.4773 125.849 12.488V14.792ZM130.88 21.16C129.942 21.16 129.131 20.9573 128.448 20.552C127.776 20.1467 127.259 19.6133 126.896 18.952C126.544 18.2907 126.368 17.5707 126.368 16.792C126.368 16.024 126.544 15.3093 126.896 14.648C127.259 13.9867 127.776 13.4533 128.448 13.048C129.12 12.6427 129.931 12.44 130.88 12.44C131.84 12.44 132.651 12.648 133.312 13.064C133.984 13.4693 134.486 14.0027 134.816 14.664L132.32 15.416C131.99 14.8827 131.504 14.616 130.864 14.616C130.342 14.616 129.899 14.8133 129.536 15.208C129.174 15.6027 128.992 16.1307 128.992 16.792C128.992 17.4533 129.174 17.9867 129.536 18.392C129.899 18.7973 130.342 19 130.864 19C131.184 19 131.478 18.9253 131.744 18.776C132.011 18.616 132.208 18.4133 132.336 18.168L134.832 18.936C134.523 19.5867 134.027 20.12 133.344 20.536C132.672 20.952 131.851 21.16 130.88 21.16ZM139.927 21.16C138.978 21.16 138.167 20.9627 137.495 20.568C136.823 20.1733 136.306 19.6507 135.943 19C135.591 18.3493 135.415 17.6453 135.415 16.888C135.415 16.0773 135.591 15.336 135.943 14.664C136.295 13.992 136.807 13.4533 137.479 13.048C138.151 12.6427 138.967 12.44 139.927 12.44C140.877 12.44 141.687 12.6427 142.359 13.048C143.031 13.4533 143.538 13.9867 143.879 14.648C144.231 15.3093 144.407 16.0187 144.407 16.776C144.407 17.0853 144.386 17.3573 144.343 17.592H138.135C138.178 18.1573 138.381 18.5893 138.743 18.888C139.117 19.176 139.538 19.32 140.007 19.32C140.381 19.32 140.738 19.2293 141.079 19.048C141.421 18.8667 141.655 18.6213 141.783 18.312L143.959 18.92C143.629 19.5813 143.111 20.12 142.407 20.536C141.714 20.952 140.887 21.16 139.927 21.16ZM138.071 16.024H141.719C141.666 15.4907 141.469 15.0693 141.127 14.76C140.797 14.44 140.386 14.28 139.895 14.28C139.405 14.28 138.989 14.44 138.647 14.76C138.317 15.08 138.125 15.5013 138.071 16.024Z" fill="white"/>
</svg>
